<?xml version="1.0" standalone="no"?>
<!DOCTYPE svg PUBLIC "-//W3C//DTD SVG 1.1//EN" "http://www.w3.org/Graphics/SVG/1.1/DTD/svg11.dtd">
<svg width="100%" height="100%" viewBox="0 0 3508 2481" version="1.1" xmlns="http://www.w3.org/2000/svg" xmlns:xlink="http://www.w3.org/1999/xlink" xml:space="preserve" style="fill-rule:evenodd;clip-rule:evenodd;stroke-linejoin:round;stroke-miterlimit:1.41421;">
    <g id="Layer1" transform="matrix(1,0,0,1,1113.94,728.157)">
        <g transform="matrix(2.03287,0,0,2.03287,825.608,-861.891)">
            <g transform="matrix(0.246847,0,0,0.246847,196.99,281.158)">
                <g transform="matrix(0.468222,0,0,0.468222,153.028,116.648)">
                    <path d="M270.826,70.55L212.17,3.66C210.13,1.334 207.187,0 204.093,0L55.941,0C49.076,0 43.51,5.566 43.51,12.431L43.51,304.57C43.51,311.436 49.076,317.001 55.941,317.001L261.058,317.001C267.924,317.001 273.49,311.435 273.49,304.569L273.49,77.633C273.491,75.027 272.544,72.51 270.826,70.55ZM55.941,211.073L55.941,12.432L199.94,12.432L199.94,76.033C199.94,79.464 202.721,82.249 206.156,82.249L261.059,82.249L261.065,211.073L55.941,211.073Z" style="fill:black;fill-rule:nonzero;"/>
                </g>
                <g transform="matrix(3.47252,0,0,2.9328,-54.5113,-442.857)">
                    <text x="67.662px" y="236.187px" style="font-family:'Arial-BoldMT';font-size:12.006px;fill:white;">N<tspan x="76.572px 80.148px 84.386px 91.96px " y="236.187px 236.187px 236.187px 236.187px ">IfTI</tspan></text>
                </g>
                <g transform="matrix(-0.065817,0,0,0.0676864,256.695,147.09)">
                    <path d="M926.932,305.137C939.233,266.837 928.332,218.537 894.932,181.137C880.432,164.937 863.532,152.637 845.733,144.637C840.633,136.237 834.532,128.037 827.633,120.237C797.733,86.737 758.233,68.737 721.932,68.537C696.532,49.037 662.233,34.237 623.233,28.137C592.533,23.337 562.933,24.537 537.033,30.537C514.533,20.737 488.033,16.737 460.233,20.237C431.334,23.937 405.733,35.137 386.133,51.237C355.133,37.237 315.233,36.437 277.233,52.137C244.533,65.637 219.433,88.637 205.233,115.137C179.833,120.737 154.133,134.237 132.233,155.237C101.133,185.037 84.733,223.237 84.833,258.037C47.033,279.037 23.033,315.137 24.733,353.637C14.633,369.037 7.033,387.137 3.033,407.037C-3.867,441.537 1.333,474.936 15.333,501.337C14.333,559.637 47.033,609.937 96.233,619.737C99.433,620.337 102.633,620.837 105.833,621.136C104.133,633.237 104.333,645.536 106.833,657.836C120.933,728.936 202.533,772.636 289.133,755.436C293.032,754.636 296.933,753.737 300.733,752.737C313.633,773.436 340.433,764.537 340.433,764.537L340.433,841.137C340.433,849.337 343.533,857.137 349.233,863.137L391.633,907.837C401.532,918.337 419.133,911.237 419.133,896.837L419.133,810.237C421.733,732.136 450.433,693.537 474.933,678.837C507.933,658.937 507.433,617.537 507.233,602.437C533.233,616.137 574.334,623.937 608.733,620.038C763.932,602.138 772.032,497.738 777.133,480.638C822.432,484.038 864.031,464.838 882.031,427.938C884.531,422.739 886.531,417.338 887.931,411.938C902.931,403.039 915.232,390.338 923.031,374.338C933.633,352.737 934.332,328.337 926.932,305.137Z" style="fill:black;fill-rule:nonzero;"/>
                </g>
            </g>
            <g transform="matrix(0.568829,1.48814e-32,1.27555e-32,0.568829,137.553,38.6493)">
                <text x="243.278px" y="531.206px" style="font-family:'VerbCondExtralight';font-size:64px;fill:black;">sub-01_T1w<tspan x="573.838px 588.366px " y="531.206px 531.206px ">.n</tspan>ii.gz</text>
            </g>
        </g>
        <g transform="matrix(2.03287,0,0,2.03287,825.608,-858.795)">
            <g id="folder" transform="matrix(0.0915806,0,0,0.0915806,163.899,253.021)">
                <path d="M204,51L51,51C22.95,51 0,73.95 0,102L0,408C0,436.05 22.95,459 51,459L459,459C487.05,459 510,436.05 510,408L510,153C510,124.95 487.05,102 459,102L255,102L204,51Z" style="fill:black;fill-rule:nonzero;"/>
            </g>
            <g transform="matrix(0.568829,1.48814e-32,1.27555e-32,0.568829,78.2069,-13.4041)">
                <text x="243.278px" y="531.206px" style="font-family:'VerbCondExtralight';font-size:64px;fill:black;">anat/</text>
            </g>
        </g>
        <g transform="matrix(2.03287,0,0,2.03287,703.636,-1147.64)">
            <g>
                <g>
                    <g transform="matrix(0.0654011,5.55914e-21,5.55914e-21,0.0653784,162.089,301.437)">
                        <g>
                            <path d="M97.2,550.802C85.845,550.802 76.52,542.002 75.664,530.872L75.663,530.861L75.663,530.861L75.663,530.86L75.646,530.623L75.644,530.586L75.644,530.586L75.644,530.586L75.631,530.369L75.628,530.311L75.628,530.311L75.628,530.311L75.619,530.109L75.616,530.035L75.616,530.035L75.616,530.034L75.61,529.842L75.607,529.758L75.607,529.758L75.607,529.757L75.603,529.56L75.602,529.48L75.602,529.48C75.601,529.387 75.6,529.294 75.6,529.201L75.6,21.601C75.6,9.693 85.282,0 97.2,0L358.193,0C359.037,0 359.87,0.114 360.672,0.304C360.857,0.352 361.024,0.426 361.207,0.486L361.252,0.5C361.541,0.586 361.824,0.684 362.102,0.793C362.541,0.964 362.969,1.163 363.382,1.387C363.625,1.524 363.857,1.664 364.089,1.809C364.869,2.328 365.607,2.906 366.24,3.612C366.262,3.644 366.293,3.654 366.324,3.689L472.522,124.999C473.451,126.055 474.114,127.263 474.532,128.545C474.897,129.654 475.08,130.82 475.095,131.992C475.126,132.289 475.168,132.581 475.188,132.875L475.19,132.899L475.192,132.937L475.198,133.048L475.201,133.202C475.201,133.202 475.201,529.201 475.201,529.201C475.201,541.114 465.508,550.802 453.6,550.802L97.2,550.802ZM161.82,405.993L161.82,424.273L185.713,424.273L185.713,501.247L207.893,501.247L207.893,424.273L232.192,424.273L232.192,405.49L162.89,405.49C162.37,405.718 162.32,405.741 161.82,405.993ZM267.99,498.059C253.026,498.059 249.425,496.567 242.042,492.486L246.249,475.369C254.225,479.451 256.576,481.075 269.212,481.075C282.817,481.075 283.749,479.705 283.749,471.152C283.749,462.989 284.144,463.885 268.398,458.252C246.632,450.669 243.268,450.268 243.268,431.22C243.268,408.861 247.004,403.635 277.911,403.635C292.682,403.635 293.507,404.75 301.275,408.257L296.661,424.968C291.403,422.437 290.337,420.619 277.501,420.619C264.676,420.619 264.19,422.648 264.19,429.451C264.19,437.82 264.253,435.946 281.176,442.359C304.3,450.918 304.95,451.196 304.95,469.663C304.939,491.622 303.952,498.059 267.99,498.059ZM364.727,496.692L340.547,496.692L311.201,405.128L333.891,405.128L345.03,443.852C349.502,459.398 350.073,460.261 353.184,476.593L353.589,476.593C356.89,460.846 357.403,459.221 361.874,444.26L373.558,405.132L395.57,405.132L364.727,496.692ZM97.323,366.759L453.6,366.759L453.6,142.922L358.193,142.922C352.234,142.922 347.392,138.084 347.392,132.122L347.392,21.601L97.2,21.601L97.2,366.752L97.323,366.759ZM177.579,289.27L177.579,170.058L377.189,170.058L377.189,196.582L377.311,196.582L377.311,289.27L177.579,289.27ZM179.89,286.971L243.727,286.971L243.727,260.044L179.89,260.044L179.89,286.971ZM246.035,286.569L270.356,286.569L270.356,241.207L287.666,241.207L287.666,286.569L300.364,286.569L300.364,225.439L317.672,225.439L317.672,286.569L332.09,286.569L332.09,209.471L349.397,209.471L349.397,286.569L374.603,286.569L374.603,201.593L246.035,201.593L246.035,286.569ZM179.89,257.742L243.727,257.742L243.727,230.818L179.89,230.818L179.89,257.742ZM179.89,228.506L243.727,228.506L243.727,201.593L179.89,201.593L179.89,228.506ZM244.891,199.281L308.729,199.281L308.729,172.368L244.891,172.368L244.891,199.281ZM311.039,199.281L374.604,199.281L374.604,196.581L374.879,196.581L374.879,172.368L311.039,172.368L311.039,199.281Z" style="fill:black;"/>
                        </g>
                    </g>
                    <g transform="matrix(0.568829,1.48814e-32,1.27555e-32,0.568829,67.3977,27.2092)">
                        <text x="243.278px" y="531.206px" style="font-family:'VerbCondExtralight';font-size:64px;fill:black;">par<tspan x="334.862px " y="531.206px ">t</tspan>icipants.ts<tspan x="637.646px " y="531.206px ">v</tspan></text>
                    </g>
                </g>
            </g>
        </g>
        <g transform="matrix(2.03287,0,0,2.03287,825.608,-863.163)">
            <g transform="matrix(0.244554,0,0,0.244554,140.204,433.844)">
                <g transform="matrix(0.468302,4.02334e-20,4.02334e-20,0.468137,388.202,116.675)">
                    <path d="M270.826,70.55L212.17,3.66C210.13,1.334 207.187,0 204.093,0L55.941,0C49.076,0 43.51,5.566 43.51,12.431L43.51,304.57C43.51,311.436 49.076,317.001 55.941,317.001L261.058,317.001C267.924,317.001 273.49,311.435 273.49,304.569L273.49,77.633C273.491,75.027 272.544,72.51 270.826,70.55ZM55.941,211.073L55.941,12.432L199.94,12.432L199.94,76.033C199.94,79.464 202.721,82.249 206.156,82.249L261.059,82.249L261.065,211.073L55.941,211.073Z" style="fill:black;fill-rule:nonzero;"/>
                </g>
                <g transform="matrix(2.9333,2.5201e-19,2.5201e-19,2.93227,217.152,-442.727)">
                    <text x="67.662px" y="236.187px" style="font-family:'Arial-BoldMT';font-size:12px;fill:white;">JSON</text>
                </g>
                <g id="path7508" transform="matrix(0.339831,2.91961e-20,2.91961e-20,0.339712,433.813,152.647)">
                    <path d="M79.865,119.1C115.262,167.355 149.904,105.631 149.853,68.513C149.793,24.627 105.312,0.099 79.836,0.099C38.943,0.099 0,33.895 0,80.135C0,131.531 44.64,160 79.836,160C71.871,158.853 45.329,153.166 44.973,92.033C44.733,50.687 58.46,34.168 79.778,41.434C80.255,41.611 103.292,50.699 103.292,80.385C103.292,109.945 79.865,119.1 79.865,119.1Z" style="fill:url(#_Linear1);"/>
                </g>
                <g id="path7510" transform="matrix(0.339831,2.91961e-20,2.91961e-20,0.339712,433.813,152.647)">
                    <path d="M79.823,41.401C56.433,33.339 27.78,52.617 27.78,91.23C27.78,154.278 74.501,160 80.164,160C121.057,160 160,126.204 160,79.964C160,28.568 115.36,0.099 80.164,0.099C89.913,-1.251 132.705,10.649 132.705,69.136C132.705,107.277 100.752,128.041 79.97,119.169C79.492,118.992 56.456,109.905 56.456,80.219C56.456,50.659 79.823,41.401 79.823,41.401L79.823,41.401Z" style="fill:url(#_Linear2);"/>
                </g>
            </g>
            <g transform="matrix(0.568829,1.48814e-32,1.27555e-32,0.568829,137.553,190.562)">
                <text x="243.278px" y="531.206px" style="font-family:'VerbCondExtralight';font-size:64px;fill:black;">sub-01_task<tspan x="586.83px 613.198px 633.678px " y="531.206px 531.206px 531.206px ">-re</tspan>st_bold.json</text>
            </g>
        </g>
        <g transform="matrix(2.03287,0,0,2.03287,825.608,-858.732)">
            <g transform="matrix(0.244554,0,0,0.244554,140.204,582.95)">
                <g transform="matrix(0.468302,4.02334e-20,4.02334e-20,0.468137,388.202,116.675)">
                    <path d="M270.826,70.55L212.17,3.66C210.13,1.334 207.187,0 204.093,0L55.941,0C49.076,0 43.51,5.566 43.51,12.431L43.51,304.57C43.51,311.436 49.076,317.001 55.941,317.001L261.058,317.001C267.924,317.001 273.49,311.435 273.49,304.569L273.49,77.633C273.491,75.027 272.544,72.51 270.826,70.55ZM55.941,211.073L55.941,12.432L199.94,12.432L199.94,76.033C199.94,79.464 202.721,82.249 206.156,82.249L261.059,82.249L261.065,211.073L55.941,211.073Z" style="fill:black;fill-rule:nonzero;"/>
                </g>
                <g transform="matrix(2.9333,2.5201e-19,2.5201e-19,2.93227,217.152,-442.727)">
                    <text x="67.662px" y="236.187px" style="font-family:'Arial-BoldMT';font-size:12px;fill:white;">JSON</text>
                </g>
                <g id="path75081" transform="matrix(0.339831,2.91961e-20,2.91961e-20,0.339712,433.813,152.647)">
                    <path d="M79.865,119.1C115.262,167.355 149.904,105.631 149.853,68.513C149.793,24.627 105.312,0.099 79.836,0.099C38.943,0.099 0,33.895 0,80.135C0,131.531 44.64,160 79.836,160C71.871,158.853 45.329,153.166 44.973,92.033C44.733,50.687 58.46,34.168 79.778,41.434C80.255,41.611 103.292,50.699 103.292,80.385C103.292,109.945 79.865,119.1 79.865,119.1Z" style="fill:url(#_Linear3);"/>
                </g>
                <g id="path75101" transform="matrix(0.339831,2.91961e-20,2.91961e-20,0.339712,433.813,152.647)">
                    <path d="M79.823,41.401C56.433,33.339 27.78,52.617 27.78,91.23C27.78,154.278 74.501,160 80.164,160C121.057,160 160,126.204 160,79.964C160,28.568 115.36,0.099 80.164,0.099C89.913,-1.251 132.705,10.649 132.705,69.136C132.705,107.277 100.752,128.041 79.97,119.169C79.492,118.992 56.456,109.905 56.456,80.219C56.456,50.659 79.823,41.401 79.823,41.401L79.823,41.401Z" style="fill:url(#_Linear4);"/>
                </g>
            </g>
            <g transform="matrix(0.568829,1.48814e-32,1.27555e-32,0.568829,138.76,341.333)">
                <text x="243.278px" y="531.206px" style="font-family:'VerbCondExtralight';font-size:64px;fill:black;">sub-01_dwi.json</text>
            </g>
        </g>
        <g transform="matrix(1.40247,0,0,1.40247,854.592,-909.523)">
            <g>
                <g>
                    <g id="folder1" transform="matrix(0.132745,0,0,0.132745,45.9776,188.829)">
                        <path d="M204,51L51,51C22.95,51 0,73.95 0,102L0,408C0,436.05 22.95,459 51,459L459,459C487.05,459 510,436.05 510,408L510,153C510,124.95 487.05,102 459,102L255,102L204,51Z" style="fill:black;fill-rule:nonzero;"/>
                    </g>
                    <g transform="matrix(0.824512,2.15704e-32,1.84889e-32,0.824512,-78.2319,-199.351)">
                        <text x="243.278px" y="531.206px" style="font-family:'VerbCondExtralight';font-size:64px;fill:black;">m<tspan x="297.358px " y="531.206px ">y</tspan>_dataset/</text>
                    </g>
                </g>
            </g>
        </g>
        <g transform="matrix(2.03287,0,0,2.03287,825.608,-857.757)">
            <g id="folder2" transform="matrix(0.0915806,0,0,0.0915806,100.829,201.773)">
                <path d="M204,51L51,51C22.95,51 0,73.95 0,102L0,408C0,436.05 22.95,459 51,459L459,459C487.05,459 510,436.05 510,408L510,153C510,124.95 487.05,102 459,102L255,102L204,51Z" style="fill:black;fill-rule:nonzero;"/>
            </g>
            <g transform="matrix(0.568829,1.48814e-32,1.27555e-32,0.568829,15.1374,-64.6525)">
                <text x="243.278px" y="531.206px" style="font-family:'VerbCondExtralight';font-size:64px;fill:black;">sub-01/</text>
            </g>
        </g>
        <g transform="matrix(2.03287,0,0,2.03287,825.608,-842.326)">
            <g id="folder3" transform="matrix(0.0915806,0,0,0.0915806,116.039,753.878)">
                <path d="M204,51L51,51C22.95,51 0,73.95 0,102L0,408C0,436.05 22.95,459 51,459L459,459C487.05,459 510,436.05 510,408L510,153C510,124.95 487.05,102 459,102L255,102L204,51Z" style="fill:black;fill-rule:nonzero;"/>
            </g>
            <g transform="matrix(0.568829,1.48814e-32,1.27555e-32,0.568829,30.3467,487.453)">
                <text x="243.278px" y="531.206px" style="font-family:'VerbCondExtralight';font-size:64px;fill:black;">sub-02/</text>
            </g>
        </g>
        <g transform="matrix(2.03287,0,0,2.03287,825.608,-832.77)">
            <g id="folder4" transform="matrix(0.0915806,0,0,0.0915806,116.039,799.916)">
                <path d="M204,51L51,51C22.95,51 0,73.95 0,102L0,408C0,436.05 22.95,459 51,459L459,459C487.05,459 510,436.05 510,408L510,153C510,124.95 487.05,102 459,102L255,102L204,51Z" style="fill:black;fill-rule:nonzero;"/>
            </g>
            <g transform="matrix(0.568829,1.48814e-32,1.27555e-32,0.568829,30.3467,533.49)">
                <text x="243.278px" y="531.206px" style="font-family:'VerbCondExtralight';font-size:64px;fill:black;">sub-03/</text>
            </g>
        </g>
        <g transform="matrix(2.03287,0,0,2.03287,825.608,-820.635)">
            <g id="folder5" transform="matrix(0.0915806,0,0,0.0915806,116.083,844.684)">
                <path d="M204,51L51,51C22.95,51 0,73.95 0,102L0,408C0,436.05 22.95,459 51,459L459,459C487.05,459 510,436.05 510,408L510,153C510,124.95 487.05,102 459,102L255,102L204,51Z" style="fill:black;fill-rule:nonzero;"/>
            </g>
            <g transform="matrix(0.568829,1.48814e-32,1.27555e-32,0.568829,30.3912,578.259)">
                <text x="243.278px" y="531.206px" style="font-family:'VerbCondExtralight';font-size:64px;fill:black;">sub-04/</text>
            </g>
        </g>
        <g transform="matrix(1.40247,0,0,1.40247,874.409,-841.863)">
            <g transform="matrix(0.357802,0,0,0.357802,250.738,540.044)">
                <g transform="matrix(0.468222,0,0,0.468222,153.028,116.648)">
                    <path d="M270.826,70.55L212.17,3.66C210.13,1.334 207.187,0 204.093,0L55.941,0C49.076,0 43.51,5.566 43.51,12.431L43.51,304.57C43.51,311.436 49.076,317.001 55.941,317.001L261.058,317.001C267.924,317.001 273.49,311.435 273.49,304.569L273.49,77.633C273.491,75.027 272.544,72.51 270.826,70.55ZM55.941,211.073L55.941,12.432L199.94,12.432L199.94,76.033C199.94,79.464 202.721,82.249 206.156,82.249L261.059,82.249L261.065,211.073L55.941,211.073Z" style="fill:black;fill-rule:nonzero;"/>
                </g>
                <g transform="matrix(3.47252,0,0,2.9328,-54.5113,-442.857)">
                    <text x="67.662px" y="236.187px" style="font-family:'Arial-BoldMT';font-size:12.006px;fill:white;">N<tspan x="76.572px 80.148px 84.386px 91.96px " y="236.187px 236.187px 236.187px 236.187px ">IfTI</tspan></text>
                </g>
                <g transform="matrix(-0.065817,0,0,0.0676864,256.695,147.09)">
                    <path d="M926.932,305.137C939.233,266.837 928.332,218.537 894.932,181.137C880.432,164.937 863.532,152.637 845.733,144.637C840.633,136.237 834.532,128.037 827.633,120.237C797.733,86.737 758.233,68.737 721.932,68.537C696.532,49.037 662.233,34.237 623.233,28.137C592.533,23.337 562.933,24.537 537.033,30.537C514.533,20.737 488.033,16.737 460.233,20.237C431.334,23.937 405.733,35.137 386.133,51.237C355.133,37.237 315.233,36.437 277.233,52.137C244.533,65.637 219.433,88.637 205.233,115.137C179.833,120.737 154.133,134.237 132.233,155.237C101.133,185.037 84.733,223.237 84.833,258.037C47.033,279.037 23.033,315.137 24.733,353.637C14.633,369.037 7.033,387.137 3.033,407.037C-3.867,441.537 1.333,474.936 15.333,501.337C14.333,559.637 47.033,609.937 96.233,619.737C99.433,620.337 102.633,620.837 105.833,621.136C104.133,633.237 104.333,645.536 106.833,657.836C120.933,728.936 202.533,772.636 289.133,755.436C293.032,754.636 296.933,753.737 300.733,752.737C313.633,773.436 340.433,764.537 340.433,764.537L340.433,841.137C340.433,849.337 343.533,857.137 349.233,863.137L391.633,907.837C401.532,918.337 419.133,911.237 419.133,896.837L419.133,810.237C421.733,732.136 450.433,693.537 474.933,678.837C507.933,658.937 507.433,617.537 507.233,602.437C533.233,616.137 574.334,623.937 608.733,620.038C763.932,602.138 772.032,497.738 777.133,480.638C822.432,484.038 864.031,464.838 882.031,427.938C884.531,422.739 886.531,417.338 887.931,411.938C902.931,403.039 915.232,390.338 923.031,374.338C933.633,352.737 934.332,328.337 926.932,305.137Z" style="fill:black;fill-rule:nonzero;"/>
                </g>
            </g>
            <g transform="matrix(0.824512,2.15704e-32,1.84889e-32,0.824512,164.586,188.529)">
                <text x="243.278px" y="531.206px" style="font-family:'VerbCondExtralight';font-size:64px;fill:black;">sub-01_task<tspan x="586.83px 613.198px 633.678px " y="531.206px 531.206px 531.206px ">-re</tspan>st_bold.nii.gz</text>
            </g>
        </g>
        <g transform="matrix(2.03287,0,0,2.03287,825.608,-866.242)">
            <g id="folder6" transform="matrix(0.0915806,0,0,0.0915806,163.899,357.953)">
                <path d="M204,51L51,51C22.95,51 0,73.95 0,102L0,408C0,436.05 22.95,459 51,459L459,459C487.05,459 510,436.05 510,408L510,153C510,124.95 487.05,102 459,102L255,102L204,51Z" style="fill:black;fill-rule:nonzero;"/>
            </g>
            <g transform="matrix(0.568829,1.48814e-32,1.27555e-32,0.568829,78.2069,91.5278)">
                <path d="M245.838,499.91L250.19,499.91L250.19,531.206L252.878,531.206L252.878,499.91L261.582,499.91L261.582,497.606L252.878,497.606L252.878,490.758C252.878,487.878 254.094,486.982 255.95,486.982C257.358,486.982 260.494,487.814 261.582,488.134L262.67,486.022C261.518,485.638 258.126,484.55 255.758,484.55C253.134,484.55 250.19,485.574 250.19,491.078L250.19,497.606L245.838,497.606L245.838,499.91Z" style="fill:black;"/>
                <text x="263.31px" y="531.206px" style="font-family:'VerbCondExtralight';font-size:64px;fill:black;"><tspan x="263.31px " y="531.206px ">u</tspan>nc/</text>
            </g>
        </g>
        <g transform="matrix(2.03287,0,0,2.03287,825.608,-870.323)">
            <g transform="matrix(0.246847,0,0,0.246847,196.99,537.861)">
                <g transform="matrix(0.468222,0,0,0.468222,153.028,116.648)">
                    <path d="M270.826,70.55L212.17,3.66C210.13,1.334 207.187,0 204.093,0L55.941,0C49.076,0 43.51,5.566 43.51,12.431L43.51,304.57C43.51,311.436 49.076,317.001 55.941,317.001L261.058,317.001C267.924,317.001 273.49,311.435 273.49,304.569L273.49,77.633C273.491,75.027 272.544,72.51 270.826,70.55ZM55.941,211.073L55.941,12.432L199.94,12.432L199.94,76.033C199.94,79.464 202.721,82.249 206.156,82.249L261.059,82.249L261.065,211.073L55.941,211.073Z" style="fill:black;fill-rule:nonzero;"/>
                </g>
                <g transform="matrix(3.47252,0,0,2.9328,-54.5113,-442.857)">
                    <text x="67.662px" y="236.187px" style="font-family:'Arial-BoldMT';font-size:12.006px;fill:white;">N<tspan x="76.572px 80.148px 84.386px 91.96px " y="236.187px 236.187px 236.187px 236.187px ">IfTI</tspan></text>
                </g>
                <g transform="matrix(-0.065817,0,0,0.0676864,256.695,147.09)">
                    <path d="M926.932,305.137C939.233,266.837 928.332,218.537 894.932,181.137C880.432,164.937 863.532,152.637 845.733,144.637C840.633,136.237 834.532,128.037 827.633,120.237C797.733,86.737 758.233,68.737 721.932,68.537C696.532,49.037 662.233,34.237 623.233,28.137C592.533,23.337 562.933,24.537 537.033,30.537C514.533,20.737 488.033,16.737 460.233,20.237C431.334,23.937 405.733,35.137 386.133,51.237C355.133,37.237 315.233,36.437 277.233,52.137C244.533,65.637 219.433,88.637 205.233,115.137C179.833,120.737 154.133,134.237 132.233,155.237C101.133,185.037 84.733,223.237 84.833,258.037C47.033,279.037 23.033,315.137 24.733,353.637C14.633,369.037 7.033,387.137 3.033,407.037C-3.867,441.537 1.333,474.936 15.333,501.337C14.333,559.637 47.033,609.937 96.233,619.737C99.433,620.337 102.633,620.837 105.833,621.136C104.133,633.237 104.333,645.536 106.833,657.836C120.933,728.936 202.533,772.636 289.133,755.436C293.032,754.636 296.933,753.737 300.733,752.737C313.633,773.436 340.433,764.537 340.433,764.537L340.433,841.137C340.433,849.337 343.533,857.137 349.233,863.137L391.633,907.837C401.532,918.337 419.133,911.237 419.133,896.837L419.133,810.237C421.733,732.136 450.433,693.537 474.933,678.837C507.933,658.937 507.433,617.537 507.233,602.437C533.233,616.137 574.334,623.937 608.733,620.038C763.932,602.138 772.032,497.738 777.133,480.638C822.432,484.038 864.031,464.838 882.031,427.938C884.531,422.739 886.531,417.338 887.931,411.938C902.931,403.039 915.232,390.338 923.031,374.338C933.633,352.737 934.332,328.337 926.932,305.137Z" style="fill:black;fill-rule:nonzero;"/>
                </g>
            </g>
            <g transform="matrix(0.568829,1.48814e-32,1.27555e-32,0.568829,137.553,295.352)">
                <text x="243.278px" y="531.206px" style="font-family:'VerbCondExtralight';font-size:64px;fill:black;">sub-01_dwi.nii.gz</text>
            </g>
        </g>
        <g transform="matrix(2.03287,0,0,2.03287,825.608,-859.374)">
            <g transform="matrix(0.115579,0,0,0.115579,235.971,663.482)">
                <g>
                    <path d="M270.826,70.55L212.17,3.66C210.13,1.334 207.187,0 204.093,0L55.941,0C49.076,0 43.51,5.566 43.51,12.431L43.51,304.57C43.51,311.436 49.076,317.001 55.941,317.001L261.058,317.001C267.924,317.001 273.49,311.435 273.49,304.569L273.49,77.633C273.491,75.027 272.544,72.51 270.826,70.55ZM55.941,211.073L55.941,12.432L199.94,12.432L199.94,76.033C199.94,79.464 202.721,82.249 206.156,82.249L261.059,82.249L261.065,211.073L55.941,211.073Z" style="fill:black;fill-rule:nonzero;"/>
                </g>
            </g>
            <g transform="matrix(0.568829,1.48814e-32,1.27555e-32,0.568829,138.76,392.179)">
                <text x="243.278px" y="531.206px" style="font-family:'VerbCondExtralight';font-size:64px;fill:black;">sub-01_dwi.b<tspan x="619.598px 651.15px " y="531.206px 531.206px ">va</tspan>l</text>
            </g>
        </g>
        <g transform="matrix(2.03287,0,0,2.03287,825.608,-853.559)">
            <g transform="matrix(0.115579,0,0,0.115579,236.499,711.152)">
                <g>
                    <path d="M270.826,70.55L212.17,3.66C210.13,1.334 207.187,0 204.093,0L55.941,0C49.076,0 43.51,5.566 43.51,12.431L43.51,304.57C43.51,311.436 49.076,317.001 55.941,317.001L261.058,317.001C267.924,317.001 273.49,311.435 273.49,304.569L273.49,77.633C273.491,75.027 272.544,72.51 270.826,70.55ZM55.941,211.073L55.941,12.432L199.94,12.432L199.94,76.033C199.94,79.464 202.721,82.249 206.156,82.249L261.059,82.249L261.065,211.073L55.941,211.073Z" style="fill:black;fill-rule:nonzero;"/>
                </g>
            </g>
            <g transform="matrix(0.568829,1.48814e-32,1.27555e-32,0.568829,138.76,442.241)">
                <text x="243.278px" y="531.206px" style="font-family:'VerbCondExtralight';font-size:64px;fill:black;">sub-01_dwi.b<tspan x="619.598px 651.022px " y="531.206px 531.206px ">ve</tspan>c</text>
            </g>
        </g>
        <g transform="matrix(2.03287,0,0,2.03287,825.608,-867.228)">
            <g id="folder7" transform="matrix(0.0915806,0,0,0.0915806,163.899,509.724)">
                <path d="M204,51L51,51C22.95,51 0,73.95 0,102L0,408C0,436.05 22.95,459 51,459L459,459C487.05,459 510,436.05 510,408L510,153C510,124.95 487.05,102 459,102L255,102L204,51Z" style="fill:black;fill-rule:nonzero;"/>
            </g>
            <g transform="matrix(0.568829,1.48814e-32,1.27555e-32,0.568829,78.2069,243.299)">
                <text x="243.278px" y="531.206px" style="font-family:'VerbCondExtralight';font-size:64px;fill:black;">dwi/</text>
            </g>
        </g>
        <g id="folder8" transform="matrix(0.182373,0,0,0.182373,-1036.41,-638.428)">
            <path d="M204,51L51,51C22.95,51 0,73.95 0,102L0,408C0,436.05 22.95,459 51,459L459,459C487.05,459 510,436.05 510,408L510,153C510,124.95 487.05,102 459,102L255,102L204,51Z" style="fill:black;fill-rule:nonzero;"/>
        </g>
        <g transform="matrix(1.13276,2.96346e-32,2.54011e-32,1.13276,-1207.06,-1171.73)">
            <text x="243.278px" y="531.206px" style="font-family:'VerbCondExtralight';font-size:64px;fill:black;">dic<tspan x="323.342px " y="531.206px ">o</tspan>mdir<tspan x="482.638px " y="531.206px ">/</tspan></text>
        </g>
        <g id="folder9" transform="matrix(0.182373,0,0,0.182373,-927.183,-521.604)">
            <path d="M204,51L51,51C22.95,51 0,73.95 0,102L0,408C0,436.05 22.95,459 51,459L459,459C487.05,459 510,436.05 510,408L510,153C510,124.95 487.05,102 459,102L255,102L204,51Z" style="fill:black;fill-rule:nonzero;"/>
        </g>
        <g transform="matrix(1.13276,2.96346e-32,2.54011e-32,1.13276,-1097.83,-1052.16)">
            <text x="243.278px" y="531.206px" style="font-family:'VerbCondExtralight';font-size:64px;fill:black;">1208200617178_22/</text>
        </g>
        <g transform="matrix(0.847431,0,0,0.847431,-158.124,-239.777)">
            <g id="folder10" transform="matrix(0.215206,0,0,0.215206,-893.843,1104.56)">
                <path d="M204,51L51,51C22.95,51 0,73.95 0,102L0,408C0,436.05 22.95,459 51,459L459,459C487.05,459 510,436.05 510,408L510,153C510,124.95 487.05,102 459,102L255,102L204,51Z" style="fill:black;fill-rule:nonzero;"/>
            </g>
            <g transform="matrix(1.3367,3.49699e-32,2.99742e-32,1.3367,-1095.21,478.482)">
                <text x="243.278px" y="531.206px" style="font-family:'VerbCondExtralight';font-size:64px;fill:black;">1208200617178_23/</text>
            </g>
        </g>
        <g transform="matrix(0.847431,0,0,0.847431,-158.124,-240.56)">
            <g id="folder11" transform="matrix(0.215206,0,0,0.215206,-893.843,1224.71)">
                <path d="M204,51L51,51C22.95,51 0,73.95 0,102L0,408C0,436.05 22.95,459 51,459L459,459C487.05,459 510,436.05 510,408L510,153C510,124.95 487.05,102 459,102L255,102L204,51Z" style="fill:black;fill-rule:nonzero;"/>
            </g>
            <g transform="matrix(1.3367,3.49699e-32,2.99742e-32,1.3367,-1095.21,598.635)">
                <text x="243.278px" y="531.206px" style="font-family:'VerbCondExtralight';font-size:64px;fill:black;">1208200617178_2<tspan x="737.55px " y="531.206px ">4</tspan>/</text>
            </g>
        </g>
        <g transform="matrix(0.847431,0,0,0.847431,-158.124,-254.441)">
            <g id="folder12" transform="matrix(0.215206,0,0,0.215206,-893.843,1360.32)">
                <path d="M204,51L51,51C22.95,51 0,73.95 0,102L0,408C0,436.05 22.95,459 51,459L459,459C487.05,459 510,436.05 510,408L510,153C510,124.95 487.05,102 459,102L255,102L204,51Z" style="fill:black;fill-rule:nonzero;"/>
            </g>
            <g transform="matrix(1.3367,3.49699e-32,2.99742e-32,1.3367,-1095.21,734.245)">
                <text x="243.278px" y="531.206px" style="font-family:'VerbCondExtralight';font-size:64px;fill:black;">1208200617178_25/</text>
            </g>
        </g>
        <g transform="matrix(0.230163,0,0,0.230163,-824.66,-408.804)">
            <path d="M270.826,70.55L212.17,3.66C210.13,1.334 207.187,0 204.093,0L55.941,0C49.076,0 43.51,5.566 43.51,12.431L43.51,304.57C43.51,311.436 49.076,317.001 55.941,317.001L261.058,317.001C267.924,317.001 273.49,311.435 273.49,304.569L273.49,77.633C273.491,75.027 272.544,72.51 270.826,70.55ZM55.941,211.073L55.941,12.432L199.94,12.432L199.94,76.033C199.94,79.464 202.721,82.249 206.156,82.249L261.059,82.249L261.065,211.073L55.941,211.073Z" style="fill:black;fill-rule:nonzero;"/>
        </g>
        <g transform="matrix(1.13276,2.96346e-32,2.54011e-32,1.13276,-1018.24,-949.074)">
            <text x="243.278px" y="531.206px" style="font-family:'VerbCondExtralight';font-size:64px;fill:black;">1208200617178_22_8973.dcm</text>
        </g>
        <g transform="matrix(0.230163,0,0,0.230163,-824.66,-309.358)">
            <path d="M270.826,70.55L212.17,3.66C210.13,1.334 207.187,0 204.093,0L55.941,0C49.076,0 43.51,5.566 43.51,12.431L43.51,304.57C43.51,311.436 49.076,317.001 55.941,317.001L261.058,317.001C267.924,317.001 273.49,311.435 273.49,304.569L273.49,77.633C273.491,75.027 272.544,72.51 270.826,70.55ZM55.941,211.073L55.941,12.432L199.94,12.432L199.94,76.033C199.94,79.464 202.721,82.249 206.156,82.249L261.059,82.249L261.065,211.073L55.941,211.073Z" style="fill:black;fill-rule:nonzero;"/>
        </g>
        <g transform="matrix(1.13276,2.96346e-32,2.54011e-32,1.13276,-1018.24,-849.628)">
            <text x="243.278px" y="531.206px" style="font-family:'VerbCondExtralight';font-size:64px;fill:black;">1208200617178_22_8943.dcm</text>
        </g>
        <g transform="matrix(0.230163,0,0,0.230163,-824.66,-209.911)">
            <path d="M270.826,70.55L212.17,3.66C210.13,1.334 207.187,0 204.093,0L55.941,0C49.076,0 43.51,5.566 43.51,12.431L43.51,304.57C43.51,311.436 49.076,317.001 55.941,317.001L261.058,317.001C267.924,317.001 273.49,311.435 273.49,304.569L273.49,77.633C273.491,75.027 272.544,72.51 270.826,70.55ZM55.941,211.073L55.941,12.432L199.94,12.432L199.94,76.033C199.94,79.464 202.721,82.249 206.156,82.249L261.059,82.249L261.065,211.073L55.941,211.073Z" style="fill:black;fill-rule:nonzero;"/>
        </g>
        <g transform="matrix(1.13276,2.96346e-32,2.54011e-32,1.13276,-1018.24,-750.181)">
            <text x="243.278px" y="531.206px" style="font-family:'VerbCondExtralight';font-size:64px;fill:black;">1208200617178_22_2973.dcm</text>
        </g>
        <g transform="matrix(0.230163,0,0,0.230163,-824.66,-110.465)">
            <path d="M270.826,70.55L212.17,3.66C210.13,1.334 207.187,0 204.093,0L55.941,0C49.076,0 43.51,5.566 43.51,12.431L43.51,304.57C43.51,311.436 49.076,317.001 55.941,317.001L261.058,317.001C267.924,317.001 273.49,311.435 273.49,304.569L273.49,77.633C273.491,75.027 272.544,72.51 270.826,70.55ZM55.941,211.073L55.941,12.432L199.94,12.432L199.94,76.033C199.94,79.464 202.721,82.249 206.156,82.249L261.059,82.249L261.065,211.073L55.941,211.073Z" style="fill:black;fill-rule:nonzero;"/>
        </g>
        <g transform="matrix(1.13276,2.96346e-32,2.54011e-32,1.13276,-1018.24,-650.735)">
            <text x="243.278px" y="531.206px" style="font-family:'VerbCondExtralight';font-size:64px;fill:black;">1208200617178_22_8923.dcm</text>
        </g>
        <g transform="matrix(0.230163,0,0,0.230163,-824.66,-11.0186)">
            <path d="M270.826,70.55L212.17,3.66C210.13,1.334 207.187,0 204.093,0L55.941,0C49.076,0 43.51,5.566 43.51,12.431L43.51,304.57C43.51,311.436 49.076,317.001 55.941,317.001L261.058,317.001C267.924,317.001 273.49,311.435 273.49,304.569L273.49,77.633C273.491,75.027 272.544,72.51 270.826,70.55ZM55.941,211.073L55.941,12.432L199.94,12.432L199.94,76.033C199.94,79.464 202.721,82.249 206.156,82.249L261.059,82.249L261.065,211.073L55.941,211.073Z" style="fill:black;fill-rule:nonzero;"/>
        </g>
        <g transform="matrix(1.13276,2.96346e-32,2.54011e-32,1.13276,-1018.24,-551.289)">
            <text x="243.278px" y="531.206px" style="font-family:'VerbCondExtralight';font-size:64px;fill:black;">1208200617178_22_4473.dcm</text>
        </g>
        <g transform="matrix(0.230163,0,0,0.230163,-824.66,187.874)">
            <path d="M270.826,70.55L212.17,3.66C210.13,1.334 207.187,0 204.093,0L55.941,0C49.076,0 43.51,5.566 43.51,12.431L43.51,304.57C43.51,311.436 49.076,317.001 55.941,317.001L261.058,317.001C267.924,317.001 273.49,311.435 273.49,304.569L273.49,77.633C273.491,75.027 272.544,72.51 270.826,70.55ZM55.941,211.073L55.941,12.432L199.94,12.432L199.94,76.033C199.94,79.464 202.721,82.249 206.156,82.249L261.059,82.249L261.065,211.073L55.941,211.073Z" style="fill:black;fill-rule:nonzero;"/>
        </g>
        <g transform="matrix(1.13276,2.96346e-32,2.54011e-32,1.13276,-1018.24,-352.396)">
            <text x="243.278px" y="531.206px" style="font-family:'VerbCondExtralight';font-size:64px;fill:black;">1208200617178_22_7328.dcm</text>
        </g>
        <g transform="matrix(0.230163,0,0,0.230163,-824.66,287.32)">
            <path d="M270.826,70.55L212.17,3.66C210.13,1.334 207.187,0 204.093,0L55.941,0C49.076,0 43.51,5.566 43.51,12.431L43.51,304.57C43.51,311.436 49.076,317.001 55.941,317.001L261.058,317.001C267.924,317.001 273.49,311.435 273.49,304.569L273.49,77.633C273.491,75.027 272.544,72.51 270.826,70.55ZM55.941,211.073L55.941,12.432L199.94,12.432L199.94,76.033C199.94,79.464 202.721,82.249 206.156,82.249L261.059,82.249L261.065,211.073L55.941,211.073Z" style="fill:black;fill-rule:nonzero;"/>
        </g>
        <g transform="matrix(1.13276,2.96346e-32,2.54011e-32,1.13276,-1018.24,-252.95)">
            <text x="243.278px" y="531.206px" style="font-family:'VerbCondExtralight';font-size:64px;fill:black;">1208200617178_22_9264.dcm</text>
        </g>
        <g transform="matrix(0.230163,0,0,0.230163,-824.66,386.767)">
            <path d="M270.826,70.55L212.17,3.66C210.13,1.334 207.187,0 204.093,0L55.941,0C49.076,0 43.51,5.566 43.51,12.431L43.51,304.57C43.51,311.436 49.076,317.001 55.941,317.001L261.058,317.001C267.924,317.001 273.49,311.435 273.49,304.569L273.49,77.633C273.491,75.027 272.544,72.51 270.826,70.55ZM55.941,211.073L55.941,12.432L199.94,12.432L199.94,76.033C199.94,79.464 202.721,82.249 206.156,82.249L261.059,82.249L261.065,211.073L55.941,211.073Z" style="fill:black;fill-rule:nonzero;"/>
        </g>
        <g transform="matrix(1.13276,2.96346e-32,2.54011e-32,1.13276,-1018.24,-153.504)">
            <text x="243.278px" y="531.206px" style="font-family:'VerbCondExtralight';font-size:64px;fill:black;">1208200617178_22_9967<tspan x="949.582px 964.11px " y="531.206px 531.206px ">.d</tspan>cm</text>
        </g>
        <g transform="matrix(0.230163,0,0,0.230163,-824.66,486.213)">
            <path d="M270.826,70.55L212.17,3.66C210.13,1.334 207.187,0 204.093,0L55.941,0C49.076,0 43.51,5.566 43.51,12.431L43.51,304.57C43.51,311.436 49.076,317.001 55.941,317.001L261.058,317.001C267.924,317.001 273.49,311.435 273.49,304.569L273.49,77.633C273.491,75.027 272.544,72.51 270.826,70.55ZM55.941,211.073L55.941,12.432L199.94,12.432L199.94,76.033C199.94,79.464 202.721,82.249 206.156,82.249L261.059,82.249L261.065,211.073L55.941,211.073Z" style="fill:black;fill-rule:nonzero;"/>
        </g>
        <g transform="matrix(1.13276,2.96346e-32,2.54011e-32,1.13276,-1018.24,-54.0572)">
            <text x="243.278px" y="531.206px" style="font-family:'VerbCondExtralight';font-size:64px;fill:black;">1208200617178_22_3894.dcm</text>
        </g>
        <g transform="matrix(0.230163,0,0,0.230163,-824.66,585.659)">
            <path d="M270.826,70.55L212.17,3.66C210.13,1.334 207.187,0 204.093,0L55.941,0C49.076,0 43.51,5.566 43.51,12.431L43.51,304.57C43.51,311.436 49.076,317.001 55.941,317.001L261.058,317.001C267.924,317.001 273.49,311.435 273.49,304.569L273.49,77.633C273.491,75.027 272.544,72.51 270.826,70.55ZM55.941,211.073L55.941,12.432L199.94,12.432L199.94,76.033C199.94,79.464 202.721,82.249 206.156,82.249L261.059,82.249L261.065,211.073L55.941,211.073Z" style="fill:black;fill-rule:nonzero;"/>
        </g>
        <g transform="matrix(1.13276,2.96346e-32,2.54011e-32,1.13276,-1018.24,45.3891)">
            <text x="243.278px" y="531.206px" style="font-family:'VerbCondExtralight';font-size:64px;fill:black;">1208200617178_22_3899<tspan x="957.774px 972.302px " y="531.206px 531.206px ">.d</tspan>cm</text>
        </g>
        <g transform="matrix(0.230163,0,0,0.230163,-824.66,88.4277)">
            <path d="M270.826,70.55L212.17,3.66C210.13,1.334 207.187,0 204.093,0L55.941,0C49.076,0 43.51,5.566 43.51,12.431L43.51,304.57C43.51,311.436 49.076,317.001 55.941,317.001L261.058,317.001C267.924,317.001 273.49,311.435 273.49,304.569L273.49,77.633C273.491,75.027 272.544,72.51 270.826,70.55ZM55.941,211.073L55.941,12.432L199.94,12.432L199.94,76.033C199.94,79.464 202.721,82.249 206.156,82.249L261.059,82.249L261.065,211.073L55.941,211.073Z" style="fill:black;fill-rule:nonzero;"/>
        </g>
        <g transform="matrix(1.13276,2.96346e-32,2.54011e-32,1.13276,-1018.24,-451.842)">
            <text x="243.278px" y="531.206px" style="font-family:'VerbCondExtralight';font-size:64px;fill:black;">1208200617178_22_8783.dcm</text>
        </g>
        <g transform="matrix(1,0,0,2.00107,-1083.94,-2870.37)">
            <path d="M1477.91,1566.87L1477.91,1466.12L1642.57,1466.12L1642.57,1372.56L1930.6,1516.5L1642.57,1660.43L1642.57,1566.87L1477.91,1566.87Z" style="fill:black;"/>
        </g>
    </g>
    <defs>
        <linearGradient id="_Linear1" x1="0" y1="0" x2="1" y2="0" gradientUnits="userSpaceOnUse" gradientTransform="matrix(112.716,112.716,-112.716,112.716,23.6638,23.6638)"><stop offset="0%" style="stop-color:black;stop-opacity:1"/><stop offset="100%" style="stop-color:white;stop-opacity:1"/></linearGradient>
        <linearGradient id="_Linear2" x1="0" y1="0" x2="1" y2="0" gradientUnits="userSpaceOnUse" gradientTransform="matrix(-112.716,-112.716,112.716,-112.716,136.38,136.38)"><stop offset="0%" style="stop-color:black;stop-opacity:1"/><stop offset="100%" style="stop-color:white;stop-opacity:1"/></linearGradient>
        <linearGradient id="_Linear3" x1="0" y1="0" x2="1" y2="0" gradientUnits="userSpaceOnUse" gradientTransform="matrix(112.716,112.716,-112.716,112.716,23.6638,23.6638)"><stop offset="0%" style="stop-color:black;stop-opacity:1"/><stop offset="100%" style="stop-color:white;stop-opacity:1"/></linearGradient>
        <linearGradient id="_Linear4" x1="0" y1="0" x2="1" y2="0" gradientUnits="userSpaceOnUse" gradientTransform="matrix(-112.716,-112.716,112.716,-112.716,136.38,136.38)"><stop offset="0%" style="stop-color:black;stop-opacity:1"/><stop offset="100%" style="stop-color:white;stop-opacity:1"/></linearGradient>
    </defs>
</svg>
