<?xml version="1.0" encoding="UTF-8" standalone="no"?>
<!-- Created with Inkscape (http://www.inkscape.org/) -->

<svg
   xmlns:dc="http://purl.org/dc/elements/1.1/"
   xmlns:cc="http://creativecommons.org/ns#"
   xmlns:rdf="http://www.w3.org/1999/02/22-rdf-syntax-ns#"
   xmlns:svg="http://www.w3.org/2000/svg"
   xmlns="http://www.w3.org/2000/svg"
   xmlns:sodipodi="http://sodipodi.sourceforge.net/DTD/sodipodi-0.dtd"
   xmlns:inkscape="http://www.inkscape.org/namespaces/inkscape"
   width="572.35687"
   height="374.50574"
   id="svg2"
   version="1.1"
   inkscape:version="0.48.5 r10040"
   sodipodi:docname="bids_stamp_of_approval.svg">
  <defs
     id="defs4">
    <linearGradient
       id="linearGradient3132">
      <stop
         id="stop3134"
         offset="0"
         style="stop-color:#00d400;stop-opacity:1;" />
      <stop
         id="stop3136"
         offset="1"
         style="stop-color:#008c00;stop-opacity:1;" />
    </linearGradient>
  </defs>
  <sodipodi:namedview
     id="base"
     pagecolor="#ffffff"
     bordercolor="#666666"
     borderopacity="1.0"
     inkscape:pageopacity="0.0"
     inkscape:pageshadow="2"
     inkscape:zoom="0.35"
     inkscape:cx="-87.392048"
     inkscape:cy="72.969582"
     inkscape:document-units="px"
     inkscape:current-layer="layer1"
     showgrid="false"
     units="in"
     fit-margin-top="0.1"
     fit-margin-left="0.1"
     fit-margin-bottom="0.1"
     fit-margin-right="0.1"
     inkscape:window-width="1280"
     inkscape:window-height="697"
     inkscape:window-x="-8"
     inkscape:window-y="-8"
     inkscape:window-maximized="1" />
  <metadata
     id="metadata7">
    <rdf:RDF>
      <cc:Work
         rdf:about="">
        <dc:format>image/svg+xml</dc:format>
        <dc:type
           rdf:resource="http://purl.org/dc/dcmitype/StillImage" />
        <dc:title></dc:title>
      </cc:Work>
    </rdf:RDF>
  </metadata>
  <g
     inkscape:label="Layer 1"
     inkscape:groupmode="layer"
     id="layer1"
     transform="translate(-120.96348,-302.25217)">
    <g
       transform="matrix(3.0599843,0,0,3.0599843,43.5214,293.66604)"
       id="layer1-9"
       inkscape:label="Ebene 1">
      <g
         id="g3144"
         transform="matrix(1.3357682,0,0,1.3357682,-21.040776,-20.487941)">
        <path
           style="fill:#ffffff;fill-opacity:1;stroke:none"
           d="m 59.081455,105.95682 c -2.5239,1.73671 -5.179552,0.49831 -8.412259,0.14915 -3.100217,-0.33485 -9.517076,-5.7071 -11.355986,-8.412988 -2.094396,-3.081843 -2.403414,-6.340309 -2.41312,-8.881221 0.194903,-3.34984 2.94902,-7.706168 7.400708,-7.354474 2.258088,0.180205 3.545021,-1.762511 4.815156,-3.203517 1.657072,-1.879985 2.374723,-2.527077 3.591413,-4.252252 1.323302,-1.876333 3.510871,-3.860766 1.035749,-6.009803 -2.043797,-1.774555 -1.062974,-4.781267 0.549774,-6.773822 1.351652,-1.669972 -0.412871,-2.75392 -0.725423,-4.368673 -0.441381,-2.280266 0.637123,-4.84643 2.7037,-5.986309 2.201261,-1.214171 4.200718,-1.240897 6.164994,-3.071868 0.644603,-2.317596 -0.14512,-7.039709 -0.498969,-9.611173 -0.360735,-2.621497 -1.394756,-5.018589 -1.946559,-7.562792 -0.61035,-2.814174 -1.115816,-6.616087 0.507375,-8.956055 1.51685,-2.186675 4.977739,-2.474437 7.163335,-1.456677 2.654717,1.236211 4.757901,2.397894 6.272627,4.538418 1.519053,2.14664 3.818328,5.424547 3.382953,8.199211 -0.708086,4.512717 -3.741826,8.808875 -3.125501,11.92152 l 0.152555,0.595811 c 1.338928,-0.06403 2.352742,0.116426 3.675693,0.74368 l 3.552944,0.353833 c 2.083621,0.0526 4.199149,2.123403 5.239438,3.803668 1.510289,2.439411 2.230752,5.867901 1.79804,9.24465 0.58749,0.814492 1.492651,2.143474 1.700676,4.045812 0.412095,3.768592 -0.216321,7.995322 -2.534105,9.633133 0.587879,1.982515 -0.195925,4.639736 -1.82643,6.266002 1.46644,1.213046 2.034969,3.408285 0.383633,6.135003 -0.946704,1.563202 -2.238596,2.36092 -4.297757,3.164636 -1.13648,0.443583 -3.750042,1.258955 -6.370411,1.441465 -0.941926,1.328928 -3.906556,3.272 -5.056681,4.136173 -2.142888,1.520843 -3.908988,0.995394 -6.04988,2.036641 -4.112243,2.000027 -1.46652,6.732718 -5.477682,9.492818 z"
           id="path3146"
           sodipodi:nodetypes="csscssssssscssssssccccscsccssccss"
           inkscape:connector-curvature="0" />
        <path
           sodipodi:nodetypes="csscssssssscsssssscssscsscscscsssssscsscssssscscsccssccsccsccsccscscsccssccsscccccccccccscsscccccsccssccccccsscssccccccc"
           id="path3148"
           d="m 59.08146,105.95682 c -2.5239,1.73671 -5.179553,0.49831 -8.412258,0.14915 -3.100221,-0.33485 -9.517081,-5.7071 -11.355993,-8.412988 -2.094391,-3.081843 -2.403411,-6.340308 -2.41312,-8.881218 0.194909,-3.349836 2.949023,-7.706164 7.400714,-7.35447 2.258084,0.180205 3.545014,-1.762512 4.815154,-3.203521 1.657072,-1.879988 2.374721,-2.527074 3.591414,-4.252249 1.323299,-1.876334 3.510871,-3.860766 1.03575,-6.009809 -2.0438,-1.77455 -1.062975,-4.781261 0.549772,-6.773815 1.35165,-1.669975 -0.41287,-2.753927 -0.725427,-4.368679 -0.441376,-2.280263 0.637124,-4.846424 2.7037,-5.986305 2.201267,-1.214176 4.20072,-1.240899 6.165,-3.071869 0.6446,-2.317597 -0.145123,-7.03971 -0.498973,-9.611174 -0.360734,-2.621497 -1.394756,-5.018589 -1.946558,-7.562792 -0.610353,-2.814174 -1.115816,-6.616086 0.507374,-8.956055 1.516854,-2.186675 4.977738,-2.474437 7.163338,-1.456677 2.654715,1.236211 4.757898,2.397895 6.272623,4.538418 1.519054,2.14664 3.818328,5.424547 3.382957,8.199211 -0.70809,4.512717 -3.741825,8.808876 -3.125504,11.92152 -1.484472,-2.530848 1.750514,-8.261621 2.033474,-11.709604 0.263386,-3.24103 -1.683887,-5.797018 -3.185037,-7.813861 -0.964378,-1.295674 -3.185966,-3.050871 -5.303912,-3.884463 -1.732292,-0.681803 -4.077375,-1.431117 -5.982913,0.713693 -1.735094,1.838878 -1.182381,5.977464 -0.615829,8.160736 0.78538,3.026546 1.717943,5.949733 2.154354,9.555306 0.281427,2.325116 0.397928,5.442358 0.159831,7.905387 0.983756,0.438061 4.308231,-0.952581 6.216652,-1.357977 2.595537,-0.551363 5.755752,-1.83441 8.351627,-0.229726 -3.752776,-0.314119 -6.590113,0.572 -9.885503,1.521066 -2.457118,0.707647 -4.866988,1.626094 -7.287536,2.40879 -1.855627,0.76956 -4.002893,1.50023 -5.309299,2.975705 -1.173661,1.325546 -1.628591,2.776049 -0.08295,4.284636 2.061559,2.012146 -0.381524,4.364113 -1.590791,5.960622 -1.624469,2.14467 1.144298,3.844008 2.292841,5.345838 1.254116,1.639876 0.310161,4.369506 -0.509672,6.277928 -0.849321,1.97707 0.626669,1.983024 1.836131,4.312393 0.697567,1.343481 -0.670595,3.060843 0.118705,4.378731 -2.298898,-0.470843 -0.474947,-3.581788 -1.369523,-4.39758 -2.408032,-2.195943 -1.996264,-2.448933 -0.814117,-5.553395 0.732087,-1.922553 0.671612,-2.615157 0.36678,-2.898983 -0.867278,2.002072 -4.579804,6.024377 -5.982979,7.779614 -1.358602,1.699476 -3.417164,3.525038 -5.509104,3.419339 -4.357451,-0.220154 -6.115007,4.419607 -6.034735,6.820203 0.06527,1.907352 0.905319,4.963244 2.691085,7.269785 1.217761,1.572877 7.481921,7.152099 10.001946,7.332139 2.690243,0.19219 5.786075,-0.0721 7.048276,-2.66757 1.181727,-1.457606 2.201815,-3.598679 3.842141,-4.665972 1.846308,-1.201311 -2.2554,-0.791085 -2.379111,-1.940148 1.3354,0.433876 7.726753,0.959175 10.181725,-0.624288 1.457264,-0.939953 2.835517,-1.889827 4.151777,-3.226478 -2.849713,0.363356 -6.805495,0.56404 -9.414557,-0.35553 2.044959,0.123785 3.806801,-0.135955 4.743392,-0.234757 2.057045,-0.21699 4.329112,-0.800868 6.005878,-1.394653 1.900102,-0.672872 2.270975,-0.947881 3.487835,-1.668887 -0.156145,0.801521 -0.535418,1.628763 -1.13716,2.18366 2.068044,-0.569005 6.515894,-2.033325 7.729561,-3.812653 1.180368,-1.730512 1.284811,-3.590137 -0.606712,-5.112794 -0.683995,-0.516511 -0.896499,-1.578445 0.189377,-1.082255 0.350711,-0.452567 1.201613,-2.001414 1.403661,-3.067164 0.422512,-2.228584 -0.516643,-6.00807 -2.392979,-7.555943 1.211778,0.477232 2.910072,2.303013 3.571712,3.323341 1.755255,-1.810187 2.274581,-4.955172 1.86875,-7.952014 -0.526941,-3.891175 -1.887773,-4.982018 -5.10186,-6.90099 1.914261,0.315845 2.81493,0.980306 3.596871,1.73373 0.262454,-2.554353 -0.677922,-5.232694 -1.871934,-7.470272 -0.867089,-1.624921 -2.510113,-3.268523 -4.294974,-4.391361 2.083623,0.0526 4.19915,2.123406 5.239439,3.803666 1.510292,2.439415 2.230754,5.8679 1.798043,9.244652 0.587491,0.814494 1.492651,2.143475 1.700672,4.045816 0.4121,3.768589 -0.216319,7.995322 -2.534103,9.633126 0.587877,1.982518 -0.195926,4.639738 -1.82643,6.266007 1.466442,1.213046 2.03497,3.408281 0.383632,6.135001 -0.9467,1.563207 -2.238591,2.360917 -4.297752,3.164636 -1.136484,0.443582 -3.750043,1.258956 -6.37041,1.441462 -0.941928,1.328934 -3.906556,3.272 -5.056686,4.136173 -2.14289,1.520843 -3.908987,0.995394 -6.049882,2.036641 -4.11224,2.000027 -1.466519,6.732718 -5.477676,9.492818 z m -6.808951,-8.962456 c 1.489144,-1.591307 3.704443,-3.131001 3.099327,-5.760378 -0.578964,-1.783193 1.30432,-5.543527 0.915473,-1.649189 0.649709,1.979208 1.813012,4.210511 -0.660214,5.416497 -0.733665,0.764962 -2.191478,2.619108 -3.354586,1.99307 z m 9.723227,-7.955375 c -1.266765,-0.222708 -3.949688,-1.835189 -3.342542,-3.392067 0.511833,1.045675 3.691719,1.593777 3.342546,3.392067 l -4e-6,0 z m 8.260705,-8.332375 c -1.141557,-0.227728 -4.281471,-2.639785 -2.711277,-2.921691 2.311486,0.633752 4.859047,1.871329 7.367865,1.216429 2.505046,-0.653922 5.558684,-1.202423 7.870628,-0.174153 -2.44149,0.331197 -4.109017,0.922607 -6.468255,1.361792 -1.90646,0.354902 -4.06977,0.914435 -6.058961,0.517623 z m 12.582977,-5.501119 c 0.737623,-1.863828 -1.402339,-5.254726 -0.248876,-5.825064 0.567829,1.817972 2.959009,3.708058 1.149869,5.3389 -0.09491,0.243368 -0.600529,1.13116 -0.900993,0.486164 z M 65.081861,69.300223 c -2.405735,-1.89017 -1.780962,-2.367935 -0.353331,-2.020454 1.518199,0.369521 5.258689,0.563266 6.345091,0.306423 2.432893,-0.575182 7.396822,-1.610658 9.422343,0.222631 -2.128912,-0.351441 -6.157484,0.672988 -8.810902,1.10582 -1.481259,0.241624 -5.4258,1.310659 -6.603201,0.38558 z m 16.537115,-3.596979 c 2.085871,-1.394296 -0.111423,-6.012576 1.868944,-6.567189 0.753473,2.101424 1.34858,6.451846 -1.736626,6.71355 l -0.132315,-0.146355 -3e-6,-6e-6 z M 63.807792,58.95004 C 61.61,58.004762 61.661461,56.777976 64.503636,57.042127 c 3.514737,0.326662 7.222842,-0.544559 10.574264,-0.973712 2.177396,-0.27882 5.938435,-0.71792 7.444961,0.212007 -2.708621,0.479854 -5.542873,0.531851 -8.126862,1.3272 -2.990672,0.920524 -10.13179,1.53873 -10.588207,1.342418 z M 80.73505,47.827247 c 1.347367,1.281942 3.018378,3.442284 1.575975,5.3242 0.19178,-2.067478 -1.782741,-3.537698 -1.575975,-5.3242 z M 64.949562,39.407348 c 0.947154,-2.276646 4.917586,-1.245948 7.260093,-1.331149 1.875854,1.751582 -1.641102,0.912703 -2.673164,1.121472 -1.382212,-0.273027 -3.61025,1.720868 -4.586929,0.209677 z"
           style="fill:#000000;fill-opacity:1;stroke:none"
           inkscape:connector-curvature="0" />
      </g>
    </g>
    <text
       xml:space="preserve"
       style="font-size:139.5712738px;font-style:normal;font-weight:normal;line-height:1000%;letter-spacing:0px;word-spacing:0px;fill:#000000;fill-opacity:1;stroke:none;font-family:sans-serif"
       x="365.71893"
       y="476.86096"
       id="text3014"
       sodipodi:linespacing="1000%"><tspan
         sodipodi:role="line"
         id="tspan3016"
         x="365.71893"
         y="476.86096">BIDS</tspan></text>
    <text
       xml:space="preserve"
       style="font-size:72.77713776px;font-style:normal;font-weight:normal;line-height:1000%;letter-spacing:0px;word-spacing:0px;fill:#000000;fill-opacity:1;stroke:none;font-family:sans-serif"
       x="373.0986"
       y="546.16711"
       id="text3014-4"
       sodipodi:linespacing="1000%"><tspan
         sodipodi:role="line"
         id="tspan3016-8"
         x="373.0986"
         y="546.16711">compliant</tspan></text>
    <text
       xml:space="preserve"
       style="font-size:33.76423264px;font-style:normal;font-weight:normal;line-height:1000%;letter-spacing:0px;word-spacing:0px;fill:#000000;fill-opacity:1;stroke:none;font-family:sans-serif"
       x="373.73227"
       y="621.29456"
       id="text3014-8"
       sodipodi:linespacing="1000%"><tspan
         sodipodi:role="line"
         id="tspan3016-2"
         x="373.73227"
         y="621.29456">bids.neuroimaging.io</tspan></text>
  </g>
</svg>
