<?xml version="1.0" standalone="no"?>
<!DOCTYPE svg PUBLIC "-//W3C//DTD SVG 20010904//EN"
 "http://www.w3.org/TR/2001/REC-SVG-20010904/DTD/svg10.dtd">
<svg version="1.0" xmlns="http://www.w3.org/2000/svg"
 width="675.000000pt" height="675.000000pt" viewBox="0 0 675.000000 675.000000"
 preserveAspectRatio="xMidYMid meet">
<metadata>
Created by potrace 1.14, written by Peter Selinger 2001-2017
</metadata>
<g transform="translate(0.000000,675.000000) scale(0.100000,-0.100000)"
fill="#000000" stroke="none">
<path d="M2610 6709 c-84 -11 -171 -41 -232 -80 -52 -34 -133 -119 -175 -185
l-26 -40 -106 4 c-75 3 -126 -1 -175 -12 -198 -47 -357 -202 -432 -421 -22
-65 -28 -101 -30 -194 l-3 -114 -73 -39 c-253 -137 -398 -372 -423 -685 -7
-87 6 -212 32 -306 l16 -57 -75 -79 c-161 -167 -264 -365 -315 -601 -14 -64
-18 -126 -17 -250 0 -145 4 -183 32 -315 17 -82 47 -199 66 -259 l34 -108 -33
-62 c-120 -218 -163 -462 -115 -652 25 -101 94 -239 165 -332 l55 -73 -11 -72
c-15 -92 -6 -331 16 -416 40 -162 108 -286 215 -391 149 -146 336 -224 571
-237 l106 -6 37 -88 c78 -184 227 -368 376 -465 130 -84 239 -118 430 -134
248 -22 505 28 693 134 292 164 461 419 525 792 l17 99 698 3 697 2 0 190 0
190 -705 0 -705 0 0 24 c0 47 -42 241 -72 336 -31 98 -75 193 -110 241 -19 26
-20 29 -4 76 9 27 27 96 40 153 l23 105 767 3 766 2 0 190 0 190 -759 0 -759
0 -7 43 c-21 135 -94 357 -163 493 l-29 57 23 57 c13 31 29 90 35 131 6 41 13
80 15 87 3 9 176 12 824 12 l820 0 0 190 0 190 -754 0 -753 0 -6 78 c-7 93
-25 146 -109 329 l-65 140 47 71 c71 105 92 168 98 290 5 122 -19 245 -72 357
l-32 70 39 90 c169 387 111 764 -155 1010 -149 138 -334 220 -553 245 -101 11
-132 11 -225 -1z m342 -354 c254 -88 395 -305 358 -550 -16 -103 -50 -199
-111 -313 -47 -86 -51 -99 -47 -146 4 -38 15 -67 46 -115 55 -84 83 -161 89
-243 5 -58 2 -74 -20 -120 -14 -29 -44 -71 -66 -92 -38 -37 -41 -38 -71 -26
-32 13 -81 67 -119 130 -26 44 -26 28 -1 -80 15 -61 49 -142 120 -285 54 -110
117 -243 140 -295 39 -88 42 -100 38 -166 -9 -134 -70 -217 -189 -259 -140
-50 -318 30 -363 162 -10 27 -35 136 -57 243 -22 107 -51 242 -64 300 -95 400
-35 599 188 633 l77 12 -29 36 c-118 143 -368 76 -441 -117 -38 -102 -45 -198
-24 -307 l6 -29 -33 18 c-19 9 -63 19 -99 21 -75 6 -153 -19 -209 -66 l-34
-28 59 -11 c145 -25 247 -89 300 -187 33 -59 39 -85 87 -360 27 -150 99 -296
195 -394 92 -93 205 -137 385 -148 69 -4 97 -10 97 -19 0 -7 -16 -43 -36 -81
-51 -94 -51 -147 -2 -228 80 -134 142 -292 173 -445 21 -101 16 -302 -9 -415
-24 -106 -58 -215 -67 -215 -24 0 -126 46 -174 79 -175 117 -323 327 -365 519
-11 48 -22 96 -25 107 -4 15 3 25 28 40 61 38 113 179 132 360 l6 60 -22 -30
c-46 -63 -147 -151 -204 -179 -69 -33 -174 -45 -240 -27 -146 39 -235 182
-280 450 -32 189 -19 301 54 472 l39 89 -30 -18 c-67 -39 -189 -144 -227 -195
-53 -73 -82 -93 -147 -108 -64 -14 -192 1 -260 31 -165 72 -277 403 -194 574
32 67 42 70 181 56 159 -17 265 -9 334 24 29 15 58 33 65 41 11 13 4 15 -48
15 -166 0 -408 55 -513 117 -48 29 -64 87 -64 238 0 170 30 261 118 362 46 52
143 113 181 113 44 0 60 -13 246 -195 170 -167 227 -208 309 -221 22 -4 51 -4
64 0 23 5 19 11 -63 93 -101 103 -153 177 -225 322 -78 156 -123 272 -135 343
-23 146 37 290 147 355 43 25 57 28 133 28 156 -1 188 -42 239 -310 46 -237
62 -286 104 -332 31 -34 68 -29 181 26 244 119 386 254 386 368 0 62 -7 75
-33 61 -12 -6 -69 -56 -127 -110 -113 -106 -165 -138 -225 -138 -54 0 -97 37
-137 117 -29 60 -33 78 -36 169 -7 178 37 305 139 401 48 45 87 53 224 49 97
-3 134 -9 197 -31z m-1913 -2290 c30 -160 142 -309 320 -424 123 -79 193 -93
386 -77 119 10 125 5 154 -129 19 -86 20 -107 10 -153 -15 -70 -54 -115 -127
-143 -110 -43 -315 -24 -442 41 -22 11 -43 20 -49 20 -16 0 6 -69 33 -105 34
-44 148 -100 244 -120 150 -31 390 -15 460 31 22 14 25 14 44 -11 26 -33 69
-54 203 -99 206 -68 225 -89 310 -348 103 -313 122 -339 327 -464 263 -158
414 -275 439 -341 76 -198 106 -557 62 -763 -44 -203 -118 -342 -236 -441
-138 -116 -288 -168 -507 -176 -212 -8 -318 18 -433 105 -105 80 -206 227
-258 379 l-19 56 58 76 c80 105 125 171 119 178 -3 3 -34 -4 -69 -16 -35 -11
-121 -35 -193 -53 -110 -28 -147 -33 -240 -32 -171 1 -301 43 -390 125 -66 61
-100 114 -132 205 -23 69 -27 95 -27 206 -1 69 1 129 4 132 3 3 33 -2 65 -11
85 -22 215 -20 287 6 60 21 152 76 182 110 17 19 16 19 -61 26 -323 27 -531
144 -647 365 -73 138 -70 274 9 464 l16 38 30 -45 c50 -76 161 -171 327 -281
186 -124 281 -175 452 -246 153 -64 199 -90 244 -140 44 -49 50 -72 44 -164
-13 -203 -193 -379 -493 -484 -92 -32 216 2 353 39 81 21 139 48 191 87 34 25
36 25 113 14 151 -22 309 -95 412 -191 65 -62 154 -199 201 -312 37 -87 40
-91 47 -63 11 38 1 138 -23 227 -11 40 -62 158 -114 262 -100 200 -119 260
-132 415 -8 110 -15 115 -53 39 -47 -92 -70 -165 -70 -220 l0 -48 -49 26 c-30
15 -82 30 -128 36 -43 6 -79 11 -80 12 -1 0 4 25 12 55 22 82 29 198 16 248
-13 47 -109 157 -181 207 -22 15 -40 30 -40 34 0 3 21 17 46 30 114 61 201
223 180 336 -6 30 -56 95 -74 95 -4 0 -15 -23 -25 -51 -23 -65 -90 -132 -165
-167 -45 -20 -76 -26 -157 -30 -125 -6 -184 7 -289 59 -108 54 -196 118 -282
204 -168 168 -261 369 -335 721 -31 148 -31 343 0 459 20 75 97 253 105 244 2
-2 9 -31 15 -64z"/>
<path d="M4059 5881 c-13 -10 -28 -34 -34 -52 -11 -31 -16 -34 -61 -39 -60 -7
-89 -25 -109 -66 -23 -49 -22 -741 1 -789 31 -67 21 -66 638 -63 l556 3 32 33
33 32 3 375 c2 321 0 380 -13 408 -28 60 -35 62 -314 67 l-254 5 -12 34 c-22
68 -35 71 -250 71 -174 0 -195 -2 -216 -19z m931 -221 c11 -21 20 -42 20 -45
0 -3 -243 -5 -540 -5 -297 0 -540 3 -540 6 0 3 14 24 31 45 l31 39 489 0 489
0 20 -40z"/>
<path d="M5210 5310 l0 -190 165 0 165 0 0 -270 0 -270 190 0 190 0 0 460 0
460 -355 0 -355 0 0 -190z"/>
<path d="M5407 4354 c-4 -4 -7 -220 -7 -481 l0 -473 405 0 405 0 0 275 0 275
-190 0 -190 0 -2 203 -3 202 -206 3 c-113 1 -208 -1 -212 -4z"/>
<path d="M5930 4200 l0 -150 142 0 141 0 -59 63 c-32 34 -95 101 -141 149
l-83 87 0 -149z"/>
<path d="M5400 2565 l0 -475 405 0 405 0 0 275 0 275 -190 0 -190 0 0 200 0
200 -215 0 -215 0 0 -475z"/>
<path d="M5930 2886 l0 -146 141 0 141 0 -132 140 c-73 77 -137 143 -141 146
-5 3 -9 -60 -9 -140z"/>
<path d="M5407 1724 c-4 -4 -7 -220 -7 -481 l0 -473 405 0 405 0 0 275 0 275
-190 0 -190 0 -2 203 -3 202 -206 3 c-113 1 -208 -1 -212 -4z"/>
<path d="M5930 1569 l0 -149 142 0 142 0 -55 58 c-30 31 -94 98 -142 148 l-87
91 0 -148z"/>
</g>
</svg>
